<svg xmlns="http://www.w3.org/2000/svg" viewBox="0 0 1440 800" fill="none" preserveAspectRatio="xMidYMid meet">
  <!-- Ondas à esquerda (ampliadas) -->
  <path d="M0,400 C150,300 250,500 400,400 C550,300 650,500 800,400" stroke="#ED4575" stroke-width="4" stroke-linecap="round">
    <animate attributeName="d" dur="10s" repeatCount="indefinite" values="M0,400 C150,300 250,500 400,400 C550,300 650,500 800,400; M0,400 C150,350 250,450 400,400 C550,350 650,450 800,400; M0,400 C150,300 250,500 400,400 C550,300 650,500 800,400" />
  </path>
  
  <!-- Ondas à direita (ampliadas) -->
  <path d="M1000,400 C1150,300 1250,500 1300,400 C1350,300 1400,500 1440,400" stroke="#ED4575" stroke-width="4" stroke-linecap="round">
    <animate attributeName="d" dur="10s" repeatCount="indefinite" values="M1000,400 C1150,300 1250,500 1300,400 C1350,300 1400,500 1440,400; M1000,400 C1150,350 1250,450 1300,400 C1350,350 1400,450 1440,400; M1000,400 C1150,300 1250,500 1300,400 C1350,300 1400,500 1440,400" />
  </path>
  
  <!-- Ondas adicionais para preencher mais espaço -->
  <path d="M0,200 C150,100 250,300 400,200 C550,100 650,300 800,200" stroke="#ED4575" stroke-opacity="0.5" stroke-width="3" stroke-linecap="round">
    <animate attributeName="d" dur="12s" repeatCount="indefinite" values="M0,200 C150,100 250,300 400,200 C550,100 650,300 800,200; M0,200 C150,150 250,250 400,200 C550,150 650,250 800,200; M0,200 C150,100 250,300 400,200 C550,100 650,300 800,200" />
  </path>
  
  <path d="M1000,200 C1150,100 1250,300 1300,200 C1350,100 1400,300 1440,200" stroke="#ED4575" stroke-opacity="0.5" stroke-width="3" stroke-linecap="round">
    <animate attributeName="d" dur="12s" repeatCount="indefinite" values="M1000,200 C1150,100 1250,300 1300,200 C1350,100 1400,300 1440,200; M1000,200 C1150,150 1250,250 1300,200 C1350,150 1400,250 1440,200; M1000,200 C1150,100 1250,300 1300,200 C1350,100 1400,300 1440,200" />
  </path>
  
  <path d="M0,600 C150,500 250,700 400,600 C550,500 650,700 800,600" stroke="#ED4575" stroke-opacity="0.5" stroke-width="3" stroke-linecap="round">
    <animate attributeName="d" dur="14s" repeatCount="indefinite" values="M0,600 C150,500 250,700 400,600 C550,500 650,700 800,600; M0,600 C150,550 250,650 400,600 C550,550 650,650 800,600; M0,600 C150,500 250,700 400,600 C550,500 650,700 800,600" />
  </path>
  
  <path d="M1000,600 C1150,500 1250,700 1300,600 C1350,500 1400,700 1440,600" stroke="#ED4575" stroke-opacity="0.5" stroke-width="3" stroke-linecap="round">
    <animate attributeName="d" dur="14s" repeatCount="indefinite" values="M1000,600 C1150,500 1250,700 1300,600 C1350,500 1400,700 1440,600; M1000,600 C1150,550 1250,650 1300,600 C1350,550 1400,650 1440,600; M1000,600 C1150,500 1250,700 1300,600 C1350,500 1400,700 1440,600" />
  </path>
  
  <!-- Círculo central (base do cérebro) -->
  <circle cx="900" cy="400" r="80" fill="#212124" stroke="#ED4575" stroke-width="3" />
  
  <!-- Cérebro estilizado (redesenhado para parecer mais com um cérebro) -->
  <g transform="translate(820, 320)">
    <!-- Contorno do cérebro -->
    <path d="M80,80 C120,20 160,20 180,60 C200,20 240,20 280,80 C300,120 280,160 240,180 C280,200 280,240 240,260 C200,280 160,280 120,260 C80,240 80,200 120,180 C80,160 60,120 80,80 Z" fill="#ED4575" />
    
    <!-- Sulcos cerebrais (detalhes internos) -->
    <path d="M120,80 C140,60 160,60 180,80" stroke="#212124" stroke-width="6" fill="none" />
    <path d="M180,80 C200,60 220,60 240,80" stroke="#212124" stroke-width="6" fill="none" />
    <path d="M120,120 C140,100 160,100 180,120" stroke="#212124" stroke-width="6" fill="none" />
    <path d="M180,120 C200,100 220,100 240,120" stroke="#212124" stroke-width="6" fill="none" />
    <path d="M120,160 C140,140 160,140 180,160" stroke="#212124" stroke-width="6" fill="none" />
    <path d="M180,160 C200,140 220,140 240,160" stroke="#212124" stroke-width="6" fill="none" />
    <path d="M160,80 C160,120 160,160 160,200" stroke="#212124" stroke-width="6" fill="none" />
    <path d="M200,80 C200,120 200,160 200,200" stroke="#212124" stroke-width="6" fill="none" />
  </g>
  
  <!-- Pulsos de energia -->
  <circle cx="900" cy="400" r="100" stroke="#ED4575" stroke-width="1" fill="none" opacity="0.5">
    <animate attributeName="r" values="100;120;100" dur="3s" repeatCount="indefinite" />
    <animate attributeName="opacity" values="0.5;0;0.5" dur="3s" repeatCount="indefinite" />
  </circle>
  <circle cx="900" cy="400" r="140" stroke="#ED4575" stroke-width="1" fill="none" opacity="0.3">
    <animate attributeName="r" values="140;160;140" dur="4s" repeatCount="indefinite" />
    <animate attributeName="opacity" values="0.3;0;0.3" dur="4s" repeatCount="indefinite" />
  </circle>
  <circle cx="900" cy="400" r="180" stroke="#ED4575" stroke-width="1" fill="none" opacity="0.2">
    <animate attributeName="r" values="180;200;180" dur="5s" repeatCount="indefinite" />
    <animate attributeName="opacity" values="0.2;0;0.2" dur="5s" repeatCount="indefinite" />
  </circle>
</svg>